HIERARCHY
ROOT Hips
{
	OFFSET 0.00000 0.00000 0.00000
	CHANNELS 6 Xposition Yposition Zposition Zrotation Yrotation Xrotation 
	JOINT LHipJoint
	{
		OFFSET 0 0 0
		CHANNELS 3 Zrotation Yrotation Xrotation
		JOINT LeftHip
		{
			OFFSET 1.43652 -1.81092 0.91346
			CHANNELS 3 Zrotation Yrotation Xrotation
			JOINT LeftKnee
			{
				OFFSET 2.45984 -6.75837 0.00000
				CHANNELS 3 Zrotation Yrotation Xrotation
				JOINT LeftAnkle
				{
					OFFSET 2.63718 -7.24559 0.00000
					CHANNELS 3 Zrotation Yrotation Xrotation
					JOINT LeftToe
					{
						OFFSET 0.19690 -0.54098 2.12239
						CHANNELS 3 Zrotation Yrotation Xrotation
						End Site
						{
							OFFSET 0.00000 -0.00000 1.10116
						}
					}
				}
			}
		}
	}
	JOINT RHipJoint
	{
		OFFSET 0 0 0
		CHANNELS 3 Zrotation Yrotation Xrotation
		JOINT RightHip
		{
			OFFSET -1.35116 -1.81092 0.91345
			CHANNELS 3 Zrotation Yrotation Xrotation
			JOINT RightKnee
			{
				OFFSET -2.55576 -7.02189 0.00000
				CHANNELS 3 Zrotation Yrotation Xrotation
				JOINT RightAnkle
				{
					OFFSET -2.61938 -7.19669 0.00000
					CHANNELS 3 Zrotation Yrotation Xrotation
					JOINT RightToe
					{
						OFFSET -0.32509 -0.89318 2.23646
						CHANNELS 3 Zrotation Yrotation Xrotation
						End Site
						{
							OFFSET -0.00000 -0.00000 1.19625
						}
					}
				}
			}
		}
	}
	JOINT lowerback
	{
		OFFSET 0 0 0
		CHANNELS 3 Zrotation Yrotation Xrotation
		JOINT Chest
		{
			OFFSET 0.05193 2.08077 -0.11958
			CHANNELS 3 Zrotation Yrotation Xrotation
			JOINT Chest2
			{
				OFFSET 0.04960 2.08447 0.01967
				CHANNELS 3 Zrotation Yrotation Xrotation
				JOINT lowerneck
				{
					OFFSET 0 0 0
					CHANNELS 3 Zrotation Yrotation Xrotation
					JOINT Neck
					{
						OFFSET -0.10699 1.82066 0.27584
						CHANNELS 3 Zrotation Yrotation Xrotation
						JOINT Head
						{
							OFFSET 0.14949 1.84747 -0.32279
							CHANNELS 3 Zrotation Yrotation Xrotation
							End Site
							{
								OFFSET 0.04969 1.88916 -0.14562
							}
						}
					}
				}
				JOINT LeftCollar
				{
					OFFSET 0 0 0
					CHANNELS 3 Zrotation Yrotation Xrotation
					JOINT LeftShoulder
					{
						OFFSET 3.73629 1.27211 -0.12847
CHANNELS 3 Zrotation Xrotation Yrotation
						JOINT LeftElbow
						{
OFFSET 0 -5.109950 0.000000
CHANNELS 3 Zrotation Xrotation Yrotation
							JOINT LeftWrist
							{
OFFSET 0 -3.212070 0.000000
CHANNELS 3 Zrotation Xrotation Yrotation
								JOINT lhand
								{
									OFFSET 0 0 0
CHANNELS 3 Zrotation Xrotation Yrotation
									JOINT LFingers
									{
OFFSET 0 -0.633490 0.000000
CHANNELS 3 Zrotation Xrotation Yrotation
										End Site
										{
OFFSET 0 -0.510740 0.000000
										}
									}
								}
								JOINT LThumb
								{
OFFSET 0 0.000000 0.000000
CHANNELS 3 Zrotation Xrotation Yrotation
									End Site
									{
OFFSET 0 -0.518530 0.518530
									}
								}
							}
						}
					}
				}
				JOINT RightCollar
				{
					OFFSET 0 0 0
					CHANNELS 3 Zrotation Yrotation Xrotation
					JOINT RightShoulder
					{
						OFFSET -3.70251 1.29541 -0.35354
CHANNELS 3 Zrotation Xrotation Yrotation
						JOINT RightElbow
						{
OFFSET 0 -5.251090 0.000000
CHANNELS 3 Zrotation Xrotation Yrotation
							JOINT RightWrist
							{
OFFSET 0 -3.283640 0.000000
CHANNELS 3 Zrotation Xrotation Yrotation
								JOINT rhand
								{
									OFFSET 0 0 0
CHANNELS 3 Zrotation Xrotation Yrotation
									JOINT RFingers
									{
OFFSET 0 -0.599740 0.000000
CHANNELS 3 Zrotation Xrotation Yrotation
										End Site
										{
OFFSET 0 -0.483530 0.000000
										}
									}
								}
								JOINT RThumb
								{
OFFSET 0 0.000000 0.000000
CHANNELS 3 Zrotation Xrotation Yrotation
									End Site
									{
OFFSET 0 -0.490910 0.490910
									}
								}
							}
						}
					}
				}
			}
		}
	}
}
MOTION
Frames: 7
Frame Time: 0.008333333333333333
6.324900 18.045700 -20.480900 -6.764100 -5.529300 9.938700 0.000000 0.000000 0.000000 -10.179800 -3.452300 -11.214700 0.593500 4.932100 13.715100 -0.002000 5.275500 -7.464000 0.079000 -1.812800 -4.988600 0.000000 0.000000 0.000000 20.445100 8.067200 -10.442700 -0.482600 -4.454700 12.359500 -0.006400 -7.103300 -10.278900 -0.004300 -0.423800 1.164400 4.070400 -0.491200 2.138900 3.567800 -0.453800 -1.123000 1.407900 -0.263300 -2.359900 -20.428500 -16.166900 0.341100 19.874200 -23.062700 4.945700 7.365000 -11.374500 6.190800 -0.000000 -0.000000 0.000000 3.785000 2.354200 -51.012800 57.596100 -55.634600 32.348700 15.970400 -14.994600 -41.141300 0.000000 0.000000 0.000000 -7.125000 0.000000 0.000000 -30.367300 70.082200 18.780400 -0.000000 -0.000000 0.000000 -9.690700 -0.736300 56.365800 -53.681400 -54.376500 -29.141200 -6.002200 -31.867200 18.188900 0.000000 0.000000 0.000000 7.125000 0.000000 -0.000000 20.942300 47.117200 -1.142500
6.333183 18.046168 -20.486699 -6.765742 -5.563266 9.963706 0.000000 0.000000 0.000000 -10.206419 -3.472504 -11.261359 0.595358 4.939832 13.736995 -0.003973 5.315088 -7.458364 0.081890 -1.846178 -5.080826 0.000000 0.000000 0.000000 20.412515 8.047896 -10.475258 -0.477322 -4.430545 12.291145 -0.006932 -7.071001 -10.246133 -0.005558 -0.480438 1.320029 4.031473 -0.474984 2.226693 3.563855 -0.429910 -1.079711 1.425104 -0.250513 -2.364238 -20.612539 -16.135526 0.324557 20.034057 -23.032634 4.938052 7.442483 -11.358881 6.229414 0.000000 0.000000 0.000000 3.789877 2.248093 -51.033905 57.468704 -55.596796 32.243582 15.930137 -14.972188 -40.962594 0.000000 0.000000 0.000000 -7.125000 0.000000 0.000000 -30.107102 69.922742 18.506371 0.000000 0.000000 0.000000 -9.707929 -0.839823 56.409529 -53.561338 -54.334586 -29.043589 -5.888350 -31.888123 18.231915 0.000000 0.000000 0.000000 7.125000 0.000000 0.000000 21.062699 47.142425 -1.163360
6.340482 18.047137 -20.490836 -6.785294 -5.602502 9.992610 0.000000 0.000000 0.000000 -10.206020 -3.541738 -11.272196 0.595242 4.939284 13.735352 -0.007706 5.405027 -7.470198 0.078184 -1.803973 -4.964193 0.000000 0.000000 0.000000 20.403097 8.031361 -10.502937 -0.472885 -4.410216 12.233669 -0.005248 -7.039435 -10.163494 -0.005106 -0.461775 1.268800 4.014396 -0.485438 2.306074 3.579177 -0.438314 -1.087793 1.451791 -0.254949 -2.417036 -20.550672 -16.148059 0.383758 19.903148 -23.028750 4.844707 7.400996 -11.363754 6.164128 0.000000 0.000000 0.000000 3.761275 2.281310 -50.966890 57.424686 -55.583696 32.207282 15.897588 -15.002305 -40.830300 0.000000 0.000000 0.000000 -7.125000 0.000000 0.000000 -29.919986 69.803214 18.307433 0.000000 0.000000 0.000000 -9.758901 -0.822347 56.535103 -53.469936 -54.302524 -28.969332 -5.880168 -31.849947 18.204589 0.000000 0.000000 0.000000 7.125000 0.000000 0.000000 21.058548 47.115735 -1.148646
6.347118 18.048168 -20.494861 -6.780230 -5.613216 10.021773 0.000000 0.000000 0.000000 -10.230621 -3.548449 -11.318696 0.594984 4.938138 13.732103 -0.008120 5.398785 -7.447045 0.077984 -1.801177 -4.956451 0.000000 0.000000 0.000000 20.370310 8.011910 -10.531741 -0.468591 -4.390440 12.177787 -0.002727 -7.030103 -10.091105 -0.004637 -0.440896 1.211530 4.011282 -0.459931 2.325057 3.540223 -0.407564 -1.017886 1.411319 -0.238735 -2.355714 -20.600077 -16.120102 0.413997 20.004237 -22.994642 4.764678 7.449298 -11.349398 6.147559 0.000000 0.000000 0.000000 3.822706 2.140681 -50.998244 57.345087 -55.559905 32.141608 15.514227 -15.178248 -41.254179 0.000000 0.000000 0.000000 -7.125000 0.000000 0.000000 -31.079911 70.023878 19.210961 0.000000 0.000000 0.000000 -9.708579 -0.953032 56.507269 -53.314216 -54.247726 -28.842905 -5.828002 -31.824351 18.106334 0.000000 0.000000 0.000000 7.125000 0.000000 0.000000 21.064287 47.017251 -1.095662
6.352534 18.049257 -20.499750 -6.782983 -5.620370 10.065073 0.000000 0.000000 0.000000 -10.239417 -3.578914 -11.370147 0.593959 4.934119 13.720660 -0.009610 5.414587 -7.422216 0.077548 -1.796139 -4.942575 0.000000 0.000000 0.000000 20.347986 8.011477 -10.581768 -0.465533 -4.376254 12.137693 -0.000838 -7.028084 -10.043314 -0.004684 -0.441667 1.213596 3.978423 -0.447581 2.352887 3.531293 -0.392667 -0.977245 1.419665 -0.230326 -2.329170 -20.626956 -16.084778 0.511024 20.046719 -22.947165 4.636881 7.485730 -11.334127 6.091488 0.000000 0.000000 0.000000 3.836547 2.041071 -50.991883 57.250022 -55.531481 32.063191 15.138843 -15.346562 -41.737136 0.000000 0.000000 0.000000 -7.125000 0.000000 0.000000 -32.360599 70.287611 20.241272 0.000000 0.000000 0.000000 -9.705421 -1.040191 56.529477 -53.175866 -54.198718 -28.730692 -5.778780 -31.792876 18.054186 0.000000 0.000000 0.000000 7.125000 0.000000 0.000000 21.086778 46.962119 -1.067008
6.356855 18.050552 -20.505469 -6.780172 -5.604963 10.119082 0.000000 0.000000 0.000000 -10.246612 -3.610109 -11.445792 0.593174 4.930886 13.711574 -0.010300 5.404398 -7.387239 0.077705 -1.797688 -4.946843 0.000000 0.000000 0.000000 20.323144 8.014104 -10.647811 -0.463022 -4.364743 12.105191 0.001493 -7.041413 -10.008060 -0.004916 -0.451235 1.239913 3.934071 -0.435543 2.366724 3.523322 -0.379658 -0.933339 1.435295 -0.222567 -2.291204 -20.644080 -16.053758 0.595700 20.079619 -22.903235 4.514920 7.515997 -11.319734 6.037549 0.000000 0.000000 0.000000 3.849467 1.913293 -50.994548 57.134990 -55.496896 31.968327 14.686998 -15.572625 -42.313505 0.000000 0.000000 0.000000 -7.125000 0.000000 0.000000 -33.929476 70.590926 21.514518 0.000000 0.000000 0.000000 -9.700491 -1.143952 56.533595 -53.028171 -54.146133 -28.610871 -5.733742 -31.761212 17.997510 0.000000 0.000000 0.000000 7.125000 0.000000 0.000000 21.103604 46.903305 -1.036028
6.360408 18.051736 -20.511789 -6.774270 -5.573572 10.179558 0.000000 0.000000 0.000000 -10.251653 -3.641937 -11.538016 0.592621 4.928512 13.704787 -0.010248 5.377359 -7.348465 0.077826 -1.799641 -4.952217 0.000000 0.000000 0.000000 20.298270 8.014689 -10.728883 -0.461312 -4.356889 12.082952 0.003646 -7.060336 -9.984361 -0.005279 -0.468422 1.287048 3.880287 -0.427008 2.378746 3.520773 -0.371198 -0.895561 1.462101 -0.216963 -2.258532 -20.651293 -16.036579 0.646581 20.079096 -22.873884 4.428584 7.528136 -11.310204 5.997370 0.000000 0.000000 0.000000 3.852351 1.783805 -50.996405 57.009131 -55.458824 31.864663 14.260038 -15.826824 -42.764869 0.000000 0.000000 0.000000 -7.125000 0.000000 0.000000 -35.267338 70.795188 22.582551 0.000000 0.000000 0.000000 -9.704105 -1.244852 56.538187 -52.880250 -54.093094 -28.491030 -5.702998 -31.740164 17.921819 0.000000 0.000000 0.000000 7.125000 0.000000 0.000000 21.099576 46.828515 -0.995283
